<?xml version="1.0" encoding="utf-8"?>
<svg viewBox="0 0 386.8901692522204 97" xmlns="http://www.w3.org/2000/svg">
  <g id="SvgjsG3867" featurekey="symbolGroupContainer" fill="#111">
    <rect xmlns="http://www.w3.org/2000/svg" width="103" height="97" rx="10" ry="10" style="fill: rgb(0, 104, 118);"/>
  </g>
  <g id="SvgjsG3868" featurekey="symbolFeature-0" transform="matrix(0.3181817829608917, 0, 0, 0.3181817829608917, 5.681818008422852, 2.8181817531585693)" fill="#fff">
    <g xmlns="http://www.w3.org/2000/svg">
      <g>
        <path d="M198,54H90c-24.8,0-45,20.2-45,45s20.2,45,45,45s45-20.2,45-45h-18c0,14.9-12.1,27-27,27s-27-12.1-27-27s12.1-27,27-27    h108c14.9,0,27,12.1,27,27s-12.1,27-27,27s-27-12.1-27-27h-18c0,24.8,20.2,45,45,45s45-20.2,45-45S222.8,54,198,54z"/>
        <polygon points="81,171 99,171 99,234 117,234 117,171 135,171 135,234 153,234 153,171 171,171 171,234 189,234 189,171 207,171     216,153 72,153   "/>
      </g>
    </g>
  </g>
  <g id="SvgjsG3869" featurekey="nameLeftFeature-0" transform="matrix(1, 0, 0, 1, 123, 49)" fill="#111">
    <path d=""/>
  </g>
  <g id="SvgjsG3870" featurekey="inlineSymbolFeature-0" transform="matrix(0.45000001788139343, 0, 0, 0.45000001788139343, 123.5, 26.499999999999996)" fill="#111">
    <path xmlns="http://www.w3.org/2000/svg" d="M50,10L10,90h80L50,10z M50,24.909L72.546,70H42.36l3.333-6.667h16.064L50,39.814L31.575,76.667h44.304l3.333,6.666H20.788  L50,24.909z" style="fill: rgb(255, 255, 255);"/>
  </g>
  <g id="SvgjsG3871" featurekey="nameRightFeature-0" transform="matrix(1.1888254880905151, 0, 0, 1.1888254880905151, 166.62263488769528, 19.397068023681637)" fill="#111">
    <path d="M7.08 35.64 c0.04 1.24 0.04 2.48 0.08 3.72 c0 0.56 0.04 0.64 0.6 0.64 l3.6 0 c0.76 0 0.6 -1.28 0.56 -1.96 l0.12 -22.4 c0 -0.6 0.2 -0.8 1 -0.8 l3.52 0 c0.84 0 0.64 -1.44 0.64 -2.44 c0 -0.88 0.32 -2.4 -0.64 -2.4 c-0.68 0 -7.2 0 -9.88 0.04 c-1.32 0 -2.4 -0.04 -3.72 -0.04 c-1 0 -0.96 0.8 -0.96 2.56 c0 1.12 -0.04 2.24 0.92 2.24 c0.56 0 2.84 0 3.48 0.04 c0.4 0 0.68 0.12 0.76 0.56 c0 0.12 0.04 0.24 0.04 0.36 c0 2.88 -0.2 16.28 -0.12 19.88 z M33.24 28.16 c0 1.8 -0.04 5.36 -0.08 5.36 l0 5.44 c0 0.24 -0.04 0.64 0.08 0.88 c0.12 0.28 0.48 0.2 0.72 0.16 c1.16 -0.12 2.32 0.04 3.48 0 c1.28 -0.04 0.88 -2 0.84 -2.8 c-0.16 -1.76 0.04 -15.16 0.04 -19.96 c0 -2.16 -0.08 -6.6 -0.2 -6.8 c-0.2 -0.36 -0.72 -0.44 -1.12 -0.48 c-0.88 -0.16 -1.32 0.08 -2.64 0.08 s-1.4 0.4 -1.4 1.8 l0 1.2 c-0.04 0.96 0.12 7.68 0.12 8.76 c0 0.52 -0.04 0.56 -0.56 0.56 c-1.32 -0.04 -3.16 0.12 -4.52 0 c-1.96 -0.16 -1.52 0 -1.64 -1.8 l0 -0.24 c0 -2.56 0.32 -9.2 0.2 -9.6 c-0.2 -0.6 -0.44 -0.72 -0.96 -0.68 c-1.2 0.08 -2.44 -0.12 -3.64 -0.04 c-0.4 0.04 -0.52 0.16 -0.64 0.56 c-0.04 0.2 -0.08 0.4 -0.08 0.6 c0 1.24 0.08 2.92 0.12 4.16 l-0.12 23.72 c0 1.04 0.92 0.92 2.96 0.92 c1.88 0 2.36 0.44 2.36 -1.8 c0 -1.8 -0.12 -4.08 -0.08 -5.88 c0.04 -1.4 0 -2.76 0 -4.16 c0.04 -0.52 0.16 -0.68 0.64 -0.68 c1.76 -0.04 3.68 0 5.44 0 c0.56 0 0.68 0.08 0.68 0.72 z M42.4 31.8 l-0.04 0 c0 1 -0.04 2.04 0 3.08 c0.04 1.28 0.12 2.56 0.2 3.84 c0 0.44 0.12 0.56 0.52 0.64 c0.84 0.2 1.64 0.24 2.48 0.24 c2.16 -0.08 4.32 0.08 6.48 0 c0.88 -0.04 1.28 0.04 2.16 -0.12 c0.8 -0.16 1.08 -0.6 1.08 -1.8 c-0.08 -0.76 -0.04 -1.08 -0.04 -2 c0 -1.32 -0.92 -1.76 -1.72 -1.72 c-0.56 0.04 -3.24 -0.04 -4.32 -0.04 c-1.8 0.04 -1.52 0.28 -1.52 -1.6 c0 -1.52 0.04 -3.48 0.04 -5.04 c0 -0.84 0.08 -1.12 0.88 -1.12 l5 0 c0.8 0.12 1.36 -0.44 1.36 -1.28 s0.08 -0.88 0.08 -1.72 l-0.12 -1.2 c-0.08 -0.68 -0.32 -0.92 -1 -0.92 c-0.44 0 -0.88 0.04 -1.32 0.08 c-1.72 0.12 -2.52 -0.12 -4.2 0 c-0.56 0 -0.64 -0.08 -0.68 -0.6 c-0.16 -1.56 0 -3.28 0.16 -4.84 c0.04 -0.64 0.2 -0.76 0.8 -0.8 l5.64 -0.04 c0.76 -0.08 1 -0.04 0.96 -0.8 c-0.08 -1.16 0.04 -2.36 -0.08 -3.52 c-0.08 -0.64 -0.28 -0.76 -1 -0.76 c-1.2 0.04 -1.48 0.04 -2.68 0.12 c-1.2 0.04 -6 0.04 -7.16 0.04 c-1.68 0 -1.8 -0.12 -1.84 1.92 c-0.08 1.6 -0.04 3.24 -0.04 4.88 c0 2.8 -0.16 12.84 -0.08 15.08 z M76.32 10.920000000000002 c0.12 0.56 0.04 27.2 0.04 27.88 c0 1.2 -0.44 1.16 -1.24 1.16 c-1.2 0 -2.88 0.2 -3.24 -0.2 c-0.32 -0.28 -6.24 -14.56 -7.08 -16.36 c-0.08 -0.16 -0.28 -0.56 -0.44 -0.48 c-0.2 0.08 -0.12 0.36 -0.12 0.52 c-0.04 1.4 0.2 13.48 0.2 15.4 c0 0.96 -0.04 1.12 -0.84 1.12 l-2 0 c-0.52 0 -1.16 -0.04 -1.68 0.04 c-0.4 0 -0.6 -0.12 -0.64 -0.52 l0 -3.16 c0.08 -3.36 0 -23.28 0 -24.76 c0 -1.28 0.36 -1.52 1.64 -1.52 c0.88 -0.04 1.76 -0.04 2.64 -0.04 c0.28 0 0.44 0.04 0.6 0.4 c1.08 2.52 5.68 14.08 6.4 15.48 c0.12 0.28 0.56 1.4 0.8 1.52 l0.04 0 c0.16 -0.16 0.12 -0.96 0.12 -1.2 c0 -0.6 -0.32 -14.64 -0.32 -14.92 c0 -0.4 -0.12 -0.76 0.08 -1.04 c0.12 -0.16 0.64 -0.2 0.84 -0.24 c1.12 -0.08 2.44 0.04 3.56 0 c0.56 0 0.52 0.4 0.64 0.92 z M80.44000000000001 13.079999999999998 c0 1.92 -0.08 22.56 0 24.4 c0.04 0.44 0.04 0.88 0.04 1.32 c0 0.32 0.2 0.52 0.48 0.64 c0.24 0.08 0.56 0.16 0.8 0.16 c1.16 -0.12 2.4 0 3.6 -0.04 c2.08 0.16 3.96 -0.32 5.76 -1.28 c1.68 -0.96 2.6 -2.68 3.24 -4.48 c0.52 -1.52 0.44 -3.32 0.16 -4.88 c-0.24 -1.4 -0.88 -2.76 -1.72 -3.88 c-0.12 -0.16 -1.84 -1.24 -1.76 -1.32 c1.04 -1.48 2.52 -2.72 2.72 -4.56 c0.16 -1.6 -0.2 -3.24 -0.76 -4.72 c-0.36 -0.96 -0.84 -1.88 -1.6 -2.6 c-1.28 -1.2 -3.2 -1.72 -4.88 -1.88 c-1.72 -0.16 -3.32 -0.04 -5.04 -0.12 c-0.6 0 -0.88 0.24 -0.88 0.88 c0 0.84 -0.16 1.52 -0.16 2.36 z M85.36 20.36 c-0.04 -0.44 0 -3.96 -0.08 -5.28 c-0.04 -0.48 0.24 -0.72 0.76 -0.6 c0.4 0.08 0.72 0.12 1.04 0.36 c1 0.76 1.76 1.68 1.8 2.96 c0 0.64 0 1.28 -0.24 1.88 c-0.28 0.72 -0.68 1.28 -1.4 1.64 c-0.48 0.24 -0.92 0.52 -1.4 0.72 c-0.24 0.08 -0.48 -0.04 -0.52 -0.28 c0 -0.48 0.04 -1.4 0.04 -1.4 z M89.36000000000001 30.96 c0 0.2 -0.04 0.56 -0.04 0.92 c-0.04 1.2 -1.6 2.72 -3.4 2.76 c-0.12 0 -0.32 -0.12 -0.36 -0.24 c-0.08 -0.24 -0.16 -0.52 -0.16 -0.8 c-0.04 -1.24 0 -2.44 0 -3.76 c0.12 -0.84 0.04 -1.72 0.04 -2.6 c0.04 -0.68 0.2 -0.8 0.84 -0.92 c0.96 -0.12 1.84 0.28 2.28 1.04 c0.52 0.92 0.72 1.92 0.8 2.96 l0 0.64 z M119.84 17.36 c0.84 2.48 1.04 5.16 1.04 7.8 c0 2.2 -0.4 4.32 -0.96 6.44 c-0.72 2.52 -1.92 4.8 -4.08 6.28 c-1.6 1.16 -3.28 1.92 -5.24 2.12 c-0.28 0 -0.52 0.04 -0.8 0.04 c-0.24 0 -0.48 -0.04 -0.76 -0.04 c-1.96 -0.2 -3.64 -0.96 -5.28 -2.12 c-2.12 -1.48 -3.36 -3.76 -4.04 -6.28 c-0.6 -2.12 -0.96 -4.24 -0.96 -6.44 c0 -2.64 0.2 -5.32 1.04 -7.8 c1.48 -4.28 5.56 -7.32 10 -7.4 c4.44 0.08 8.52 3.12 10.04 7.4 z M115.96000000000001 28.08 c0.4 -2.44 0.24 -4.92 -0.24 -7.36 c-0.48 -2.2 -1.44 -4.36 -3.28 -5.68 c-0.32 -0.24 -0.68 -0.44 -1.04 -0.56 c-0.52 -0.24 -1.08 -0.32 -1.6 -0.32 s-1.04 0.08 -1.56 0.32 c-0.4 0.12 -0.72 0.32 -1.04 0.56 c-1.88 1.32 -2.84 3.48 -3.28 5.68 c-0.48 2.44 -0.64 4.92 -0.24 7.36 c0.4 2.2 1.2 5.16 3.28 6.28 c0.88 0.48 1.84 0.8 2.84 0.84 c1 -0.04 2 -0.36 2.88 -0.84 c2.08 -1.12 2.88 -4.08 3.28 -6.28 z M128.56 39.68 c0.12 0.04 0.48 0.04 0.84 0.04 c0.8 0 1.04 -2.88 1.12 -3.48 c0.04 -0.48 0.16 -0.52 0.56 -0.6 c2 -0.24 3 -0.08 5 -0.04 c0.44 0 0.68 0.2 0.8 0.56 l0.28 0.92 c0.24 0.68 0.44 1.52 0.68 2.2 c0.16 0.48 0.2 0.44 0.68 0.44 c0.64 0 2.96 0 3.64 -0.04 c0.92 0 0.28 -1.88 0.16 -2.2 c-0.36 -1.12 -0.44 -2.28 -0.8 -3.4 c-0.16 -0.48 -4.72 -22.12 -4.92 -23.32 c-0.28 -0.72 -0.04 -0.76 -0.68 -0.76 c-1.36 0 -2.8 0.08 -4.2 0 c-0.56 0 -0.52 0.16 -0.6 0.76 c-0.08 0.56 -1.52 6.92 -2.08 9.56 c-0.72 3.32 -1.36 6.52 -2.16 9.8 c-0.28 1.16 -2.2 9.52 -1.96 9.56 c0.12 0.08 0.32 0.04 0.48 0.04 c1 0 1.92 0 3.16 -0.04 z M133.8 30.6 l-0.84 0 c-1.12 0 -1.16 0 -0.88 -1.16 c0.2 -0.88 1.28 -5.64 1.52 -6.8 c0.04 -0.08 0.12 -0.16 0.16 -0.16 c0.08 0 0.16 0.08 0.2 0.12 c0.16 0.48 0.32 1.68 0.48 2.16 c0.36 1.52 0.6 2.8 0.96 4.44 c0.36 1.44 0.2 1.44 -0.52 1.44 c-0.36 0 -0.72 -0.04 -1.08 -0.04 z M151.60000000000002 37 c0 -1.04 0 -7.6 0.04 -8.12 c0.04 -0.12 0.12 -0.36 0.28 -0.36 s0.24 0.08 0.28 0.2 c1.6 3.12 3 6.24 4.44 9.28 c0.2 0.44 0.64 1.72 0.76 1.84 c0.16 0.24 0.44 0.16 0.68 0.16 l4.4 0.04 c0.52 0 0.64 -0.32 0.52 -0.76 c-0.32 -1.2 -2.6 -5.44 -3.12 -6.48 c-0.36 -0.8 -2.76 -5.44 -2.84 -5.8 c-0.08 -0.16 0.52 -0.44 0.6 -0.56 c1.92 -1.72 3.64 -3.48 4 -6.16 c0.4 -2.64 -0.2 -5.52 -1.92 -7.64 c-1.32 -1.56 -3.04 -2.48 -5.08 -2.6 c-1.24 -0.08 -2.44 0.04 -3.68 0 c-1.08 -0.04 -1.84 -0.04 -3.2 -0.04 c-0.64 0 -1.04 0.36 -1.08 1.04 l0 0.48 c-0.08 3.08 0 6.16 0.04 9.2 c0 4.64 -0.08 16.88 -0.08 18.64 c0 0.52 0.08 0.64 0.56 0.64 c0.28 0 0.6 0.04 0.88 0.04 c1.12 0 1.8 -0.04 2.96 -0.04 c0.88 0 0.56 -1.44 0.56 -3 z M151.60000000000002 21.4 l0.04 -4.04 c0.04 -0.6 -0.16 -1.8 0.4 -2.24 c0.76 -0.56 2.32 0 3 0.48 c2 1.36 1.84 4.72 0.76 6.6 c-0.52 0.88 -1.4 1.4 -2.4 1.68 c-0.6 0.16 -1.72 0.36 -1.76 -0.6 c0 -0.64 -0.04 -1.88 -0.04 -1.88 z M183.88000000000002 32.64 c0.24 -0.52 0.44 -1.04 0.64 -1.56 c0.44 -1.28 0.52 -2.6 0.64 -3.92 c0.24 -2.8 0.16 -5.64 -0.56 -8.36 c-0.88 -3.48 -3.12 -6.68 -6.48 -8.16 c-1.52 -0.68 -3.24 -0.76 -4.88 -0.72 c-1.72 0 -3.48 -0.08 -5.2 0.08 c-0.48 0.04 -0.72 0.28 -0.8 0.72 c-0.08 0.48 -0.16 0.96 -0.16 1.4 c0.08 2.44 0 9.68 0.08 10.88 c0.04 1.08 -0.08 2.4 -0.08 3.48 c0.04 2.68 0 5.4 0 8.08 c0 1.12 -0.04 2.2 -0.04 3.32 c0 1.2 -0.44 1.72 2.84 1.72 c2.92 0 5.96 -0.24 8.72 -1.28 c2.56 -0.92 4.16 -3.28 5.28 -5.68 z M172.24 28.48 l0 -4.8 c0 -3.04 0.08 -5 -0.04 -7.56 l0 -0.48 c0.04 -0.84 0.16 -0.88 1.04 -0.88 c1.16 -0.04 2 0.24 3 0.64 s1.56 1.28 2.08 2.12 c1 1.64 1.4 3.44 1.48 5.32 c0.04 1.08 0.08 2.16 0.08 3.24 c0 5.12 -3 8.68 -5.64 8.68 c-1.76 0 -2.04 0.12 -2.04 -1.04 c0 -1.2 0.08 -2.4 0.08 -3.6 c-0.04 -0.52 -0.04 -1.08 -0.04 -1.64 z" style="fill: rgb(255, 255, 255);"/>
  </g>
</svg>